<svg width="495" height="357" viewBox="0 0 495 357" fill="none" xmlns="http://www.w3.org/2000/svg">
<path d="M238.937 151.298C273.913 185.068 365.496 168.14 390.526 206.714" stroke="white" stroke-width="3" stroke-linecap="round"/>
<path d="M493.817 88.0431L250.838 165.335L250.491 12.8404L493.817 88.0431Z" fill="#565656"/>
<ellipse cx="86.8989" cy="56.0948" rx="86.8989" ry="56.0948" transform="matrix(-0.00683933 0.999977 -0.999985 -0.00555752 444.377 87.6235)" fill="#99DEFE"/>
<ellipse cx="86.8989" cy="56.0948" rx="86.8989" ry="56.0948" transform="matrix(-0.00683933 0.999977 -0.999985 -0.00555752 438.515 89.3965)" fill="#CAEEFF"/>
<path d="M490.224 267.558L247.244 344.851L246.898 192.356L490.224 267.558Z" fill="#565656"/>
<path d="M324.411 173.723L81.4362 253.337L81.0788 96.1994L324.411 173.723Z" fill="#565656"/>
<path d="M332.404 173.035L89.424 250.163L89.0779 97.9957L332.404 173.035Z" fill="#898989"/>
<path d="M457.405 265.043L214.425 342.335L214.078 189.84L457.405 265.043Z" fill="#898989"/>
<path d="M467.405 88.0431L224.425 165.335L224.078 12.8404L467.405 88.0431Z" fill="#898989"/>
<rect width="218.649" height="280.474" transform="matrix(-0.00683933 0.999977 -0.999985 -0.00555752 405.011 66.7852)" fill="#565656"/>
</svg>
