<svg width="392" height="489" viewBox="0 0 392 489" fill="none" xmlns="http://www.w3.org/2000/svg">
<path d="M110.523 7.79448L192.275 247.814L33.7526 249.19L110.523 7.79448Z" fill="#D9D9D9"/>
<path d="M297.156 10.1358L378.908 250.155L220.386 251.531L297.156 10.1358Z" fill="#D9D9D9"/>
<path d="M200.004 167.012L281.756 407.031L123.234 408.407L200.004 167.012Z" fill="#D9D9D9"/>
<rect x="86" y="96" width="232" height="276" fill="#D9D9D9"/>
<ellipse cx="201.5" cy="115.5" rx="90.5" ry="54.5" fill="#D9D9D9"/>
<line x1="86" y1="137.5" x2="318" y2="137.5" stroke="black"/>
<line x1="161.5" y1="210" x2="161.5" y2="316" stroke="black"/>
<line y1="-0.5" x2="105.852" y2="-0.5" transform="matrix(0.00865796 0.999963 -0.999958 0.00920691 232.536 210.19)" stroke="black"/>
<line y1="-0.5" x2="55.7713" y2="-0.5" transform="matrix(0.870923 0.491419 -0.468711 0.883351 112.479 138.365)" stroke="black"/>
<line y1="-0.5" x2="56.5712" y2="-0.5" transform="matrix(-0.874808 0.48447 -0.461897 -0.886934 282.941 138.365)" stroke="black"/>
<line x1="86.5" y1="138" x2="86.5" y2="350" stroke="black"/>
<line x1="318.5" y1="138" x2="318.5" y2="350" stroke="black"/>
<line x1="137" y1="349.5" x2="318" y2="349.5" stroke="black"/>
<line x1="90" y1="349.5" x2="143" y2="349.5" stroke="black"/>
<line x1="136.5" y1="76" x2="136.5" y2="138" stroke="black"/>
<line x1="136" y1="75.5" x2="271" y2="75.5" stroke="black"/>
<line x1="271.5" y1="76" x2="271.5" y2="138" stroke="black"/>
<line x1="86.5" y1="350" x2="86.5" y2="372" stroke="black"/>
<line x1="86" y1="371.5" x2="318" y2="371.5" stroke="black"/>
<line x1="318.5" y1="350" x2="318.5" y2="372" stroke="black"/>
<path d="M7.29289 400.707C7.68342 401.098 8.31658 401.098 8.70711 400.707L15.0711 394.343C15.4616 393.953 15.4616 393.319 15.0711 392.929C14.6805 392.538 14.0474 392.538 13.6569 392.929L8 398.586L2.34315 392.929C1.95262 392.538 1.31946 392.538 0.928932 392.929C0.538408 393.319 0.538408 393.953 0.928932 394.343L7.29289 400.707ZM7 40L7 400H9L9 40H7Z" fill="black"/>
<path d="M349.707 422.707C350.098 422.317 350.098 421.683 349.707 421.293L343.343 414.929C342.953 414.538 342.319 414.538 341.929 414.929C341.538 415.319 341.538 415.953 341.929 416.343L347.586 422L341.929 427.657C341.538 428.047 341.538 428.681 341.929 429.071C342.319 429.462 342.953 429.462 343.343 429.071L349.707 422.707ZM63 423H349V421H63V423Z" fill="black"/>
<path d="M58.2929 421.293C57.9024 421.683 57.9024 422.317 58.2929 422.707L64.6569 429.071C65.0474 429.462 65.6805 429.462 66.0711 429.071C66.4616 428.681 66.4616 428.047 66.0711 427.657L60.4142 422L66.0711 416.343C66.4616 415.953 66.4616 415.319 66.0711 414.929C65.6805 414.538 65.0474 414.538 64.6569 414.929L58.2929 421.293ZM163 421H59V423H163V421Z" fill="black"/>
<path d="M8.70711 23.2929C8.31658 22.9024 7.68342 22.9024 7.29289 23.2929L0.928932 29.6569C0.538408 30.0474 0.538408 30.6805 0.928932 31.0711C1.31946 31.4616 1.95262 31.4616 2.34315 31.0711L8 25.4142L13.6569 31.0711C14.0474 31.4616 14.6805 31.4616 15.0711 31.0711C15.4616 30.6805 15.4616 30.0474 15.0711 29.6569L8.70711 23.2929ZM9 42L9 24H7L7 42H9Z" fill="black"/>
<path d="M14.9645 3.09091V14H13.6435V4.47585H13.5795L10.9162 6.24432V4.90199L13.6435 3.09091H14.9645ZM18.1019 14V13.0412L21.7028 9.09943C22.1254 8.63778 22.4734 8.23651 22.7468 7.8956C23.0202 7.55114 23.2227 7.22798 23.354 6.92614C23.489 6.62074 23.5565 6.30114 23.5565 5.96733C23.5565 5.58381 23.4641 5.25178 23.2795 4.97124C23.0984 4.6907 22.8498 4.47408 22.5337 4.32138C22.2177 4.16868 21.8626 4.09233 21.4684 4.09233C21.0494 4.09233 20.6836 4.17933 20.3711 4.35334C20.0621 4.52379 19.8224 4.76349 19.652 5.07244C19.4851 5.38139 19.4016 5.74361 19.4016 6.15909H18.1445C18.1445 5.51989 18.2919 4.95881 18.5866 4.47585C18.8814 3.9929 19.2827 3.61648 19.7905 3.34659C20.3018 3.0767 20.8754 2.94176 21.511 2.94176C22.1502 2.94176 22.7166 3.0767 23.2102 3.34659C23.7038 3.61648 24.0909 3.98047 24.3714 4.43857C24.652 4.89666 24.7923 5.40625 24.7923 5.96733C24.7923 6.36861 24.7195 6.76101 24.5739 7.14453C24.4318 7.5245 24.1832 7.94886 23.8281 8.41761C23.4766 8.88281 22.9883 9.45099 22.3633 10.1222L19.913 12.7429V12.8281H24.984V14H18.1019ZM30.593 14.1491C29.968 14.1491 29.4052 14.0249 28.9045 13.7763C28.4038 13.5277 28.0025 13.1868 27.7006 12.7536C27.3988 12.3203 27.2337 11.8267 27.2053 11.2727H28.4837C28.5334 11.7663 28.7571 12.1747 29.1548 12.4979C29.5561 12.8175 30.0355 12.9773 30.593 12.9773C31.0405 12.9773 31.4382 12.8725 31.7862 12.663C32.1378 12.4535 32.413 12.1658 32.6119 11.8001C32.8143 11.4308 32.9155 11.0135 32.9155 10.5483C32.9155 10.0724 32.8107 9.64808 32.6012 9.27521C32.3952 8.89879 32.1112 8.60227 31.7489 8.38565C31.3867 8.16903 30.973 8.05895 30.5078 8.0554C30.174 8.05185 29.8313 8.10334 29.4798 8.20987C29.1282 8.31285 28.8388 8.44602 28.6115 8.60938L27.3757 8.46023L28.0362 3.09091H33.7038V4.26278H29.1442L28.7607 7.48011H28.8246C29.0483 7.30256 29.3288 7.15518 29.6662 7.038C30.0036 6.92081 30.3551 6.86222 30.7209 6.86222C31.3885 6.86222 31.9833 7.02202 32.5053 7.34162C33.0309 7.65767 33.4428 8.09091 33.7411 8.64133C34.043 9.19176 34.1939 9.82031 34.1939 10.527C34.1939 11.223 34.0376 11.8445 33.7251 12.3913C33.4162 12.9347 32.9901 13.3643 32.4467 13.6804C31.9034 13.9929 31.2855 14.1491 30.593 14.1491ZM40.7204 3.09091H42.2971L46.0045 12.1463H46.1324L49.8398 3.09091H51.4165V14H50.1807V5.71165H50.0741L46.665 14H45.4719L42.0628 5.71165H41.9562V14H40.7204V3.09091ZM54.0652 14V3.09091H60.649V4.26278H55.3862V7.94886H60.3081V9.12074H55.3862V12.8281H60.7342V14H54.0652ZM62.4334 4.26278V3.09091H70.6152V4.26278H67.1848V14H65.8638V4.26278H62.4334ZM72.654 14V3.09091H79.2378V4.26278H73.9751V7.94886H78.8969V9.12074H73.9751V12.8281H79.3231V14H72.654ZM81.6189 14V3.09091H85.305C86.1572 3.09091 86.8568 3.23651 87.4037 3.5277C87.9506 3.81534 88.3554 4.21129 88.6182 4.71555C88.8809 5.21982 89.0123 5.79332 89.0123 6.43608C89.0123 7.07884 88.8809 7.64879 88.6182 8.14595C88.3554 8.64311 87.9523 9.03374 87.409 9.31783C86.8657 9.59837 86.1714 9.73864 85.3263 9.73864H82.3433V8.54545H85.2836C85.866 8.54545 86.3348 8.46023 86.6899 8.28977C87.0486 8.11932 87.3078 7.87784 87.4676 7.56534C87.6309 7.24929 87.7126 6.87287 87.7126 6.43608C87.7126 5.99929 87.6309 5.61754 87.4676 5.29084C87.3042 4.96413 87.0432 4.712 86.6846 4.53445C86.3259 4.35334 85.8518 4.26278 85.2623 4.26278H82.9399V14H81.6189ZM86.7538 9.09943L89.4385 14H87.9044L85.2623 9.09943H86.7538Z" fill="black"/>
<line x1="158.5" y1="350" x2="158.5" y2="372" stroke="black"/>
<line x1="233.5" y1="350" x2="233.5" y2="372" stroke="black"/>
<path d="M110.523 7.79448L192.275 247.814L33.7526 249.19L110.523 7.79448Z" fill="#D9D9D9"/>
<path d="M297.156 10.1358L378.908 250.155L220.386 251.531L297.156 10.1358Z" fill="#D9D9D9"/>
<path d="M200.004 167.012L281.756 407.031L123.234 408.407L200.004 167.012Z" fill="#D9D9D9"/>
<rect x="86" y="96" width="232" height="276" fill="#D9D9D9"/>
<ellipse cx="201.5" cy="115.5" rx="90.5" ry="54.5" fill="#D9D9D9"/>
<line x1="86" y1="137.5" x2="318" y2="137.5" stroke="black"/>
<line x1="161.5" y1="210" x2="161.5" y2="316" stroke="black"/>
<line y1="-0.5" x2="105.852" y2="-0.5" transform="matrix(0.00865796 0.999963 -0.999958 0.00920691 232.536 210.19)" stroke="black"/>
<line y1="-0.5" x2="55.7713" y2="-0.5" transform="matrix(0.870923 0.491419 -0.468711 0.883351 112.479 138.365)" stroke="black"/>
<line y1="-0.5" x2="56.5712" y2="-0.5" transform="matrix(-0.874808 0.48447 -0.461897 -0.886934 282.941 138.365)" stroke="black"/>
<line x1="86.5" y1="138" x2="86.5" y2="350" stroke="black"/>
<line x1="318.5" y1="138" x2="318.5" y2="350" stroke="black"/>
<line x1="137" y1="349.5" x2="318" y2="349.5" stroke="black"/>
<line x1="90" y1="349.5" x2="143" y2="349.5" stroke="black"/>
<line x1="136.5" y1="76" x2="136.5" y2="138" stroke="black"/>
<line x1="136" y1="75.5" x2="271" y2="75.5" stroke="black"/>
<line x1="271.5" y1="76" x2="271.5" y2="138" stroke="black"/>
<line x1="86.5" y1="350" x2="86.5" y2="372" stroke="black"/>
<line x1="86" y1="371.5" x2="318" y2="371.5" stroke="black"/>
<line x1="318.5" y1="350" x2="318.5" y2="372" stroke="black"/>
<path d="M7.29289 400.707C7.68342 401.098 8.31658 401.098 8.70711 400.707L15.0711 394.343C15.4616 393.953 15.4616 393.319 15.0711 392.929C14.6805 392.538 14.0474 392.538 13.6569 392.929L8 398.586L2.34315 392.929C1.95262 392.538 1.31946 392.538 0.928932 392.929C0.538408 393.319 0.538408 393.953 0.928932 394.343L7.29289 400.707ZM7 40L7 400H9L9 40H7Z" fill="black"/>
<path d="M349.707 422.707C350.098 422.317 350.098 421.683 349.707 421.293L343.343 414.929C342.953 414.538 342.319 414.538 341.929 414.929C341.538 415.319 341.538 415.953 341.929 416.343L347.586 422L341.929 427.657C341.538 428.047 341.538 428.681 341.929 429.071C342.319 429.462 342.953 429.462 343.343 429.071L349.707 422.707ZM63 423H349V421H63V423Z" fill="black"/>
<path d="M58.2929 421.293C57.9024 421.683 57.9024 422.317 58.2929 422.707L64.6569 429.071C65.0474 429.462 65.6805 429.462 66.0711 429.071C66.4616 428.681 66.4616 428.047 66.0711 427.657L60.4142 422L66.0711 416.343C66.4616 415.953 66.4616 415.319 66.0711 414.929C65.6805 414.538 65.0474 414.538 64.6569 414.929L58.2929 421.293ZM163 421H59V423H163V421Z" fill="black"/>
<path d="M8.70711 23.2929C8.31658 22.9024 7.68342 22.9024 7.29289 23.2929L0.928932 29.6569C0.538408 30.0474 0.538408 30.6805 0.928932 31.0711C1.31946 31.4616 1.95262 31.4616 2.34315 31.0711L8 25.4142L13.6569 31.0711C14.0474 31.4616 14.6805 31.4616 15.0711 31.0711C15.4616 30.6805 15.4616 30.0474 15.0711 29.6569L8.70711 23.2929ZM9 42L9 24H7L7 42H9Z" fill="black"/>
<path d="M164.538 442.149C163.913 442.149 163.35 442.025 162.85 441.776C162.349 441.528 161.948 441.187 161.646 440.754C161.344 440.32 161.179 439.827 161.151 439.273H162.429C162.479 439.766 162.702 440.175 163.1 440.498C163.501 440.817 163.981 440.977 164.538 440.977C164.986 440.977 165.384 440.873 165.732 440.663C166.083 440.453 166.358 440.166 166.557 439.8C166.76 439.431 166.861 439.013 166.861 438.548C166.861 438.072 166.756 437.648 166.547 437.275C166.341 436.899 166.056 436.602 165.694 436.386C165.332 436.169 164.918 436.059 164.453 436.055C164.119 436.052 163.777 436.103 163.425 436.21C163.074 436.313 162.784 436.446 162.557 436.609L161.321 436.46L161.982 431.091H167.649V432.263H163.089L162.706 435.48H162.77C162.994 435.303 163.274 435.155 163.612 435.038C163.949 434.921 164.3 434.862 164.666 434.862C165.334 434.862 165.929 435.022 166.451 435.342C166.976 435.658 167.388 436.091 167.686 436.641C167.988 437.192 168.139 437.82 168.139 438.527C168.139 439.223 167.983 439.844 167.67 440.391C167.362 440.935 166.935 441.364 166.392 441.68C165.849 441.993 165.231 442.149 164.538 442.149ZM173.813 442.149C173.011 442.149 172.327 441.931 171.763 441.494C171.198 441.054 170.767 440.416 170.468 439.582C170.17 438.744 170.021 437.732 170.021 436.545C170.021 435.366 170.17 434.36 170.468 433.525C170.77 432.687 171.203 432.048 171.768 431.608C172.336 431.164 173.018 430.942 173.813 430.942C174.609 430.942 175.289 431.164 175.854 431.608C176.422 432.048 176.855 432.687 177.153 433.525C177.455 434.36 177.606 435.366 177.606 436.545C177.606 437.732 177.457 438.744 177.159 439.582C176.86 440.416 176.429 441.054 175.864 441.494C175.3 441.931 174.616 442.149 173.813 442.149ZM173.813 440.977C174.609 440.977 175.227 440.594 175.667 439.827C176.108 439.06 176.328 437.966 176.328 436.545C176.328 435.601 176.226 434.797 176.024 434.132C175.825 433.468 175.538 432.962 175.161 432.614C174.788 432.266 174.339 432.092 173.813 432.092C173.025 432.092 172.409 432.481 171.965 433.259C171.521 434.033 171.299 435.129 171.299 436.545C171.299 437.49 171.399 438.293 171.598 438.953C171.796 439.614 172.082 440.116 172.455 440.461C172.832 440.805 173.284 440.977 173.813 440.977ZM184.041 431.091H185.617L189.325 440.146H189.453L193.16 431.091H194.737V442H193.501V433.712H193.394L189.985 442H188.792L185.383 433.712H185.277V442H184.041V431.091ZM197.385 442V431.091H203.969V432.263H198.706V435.949H203.628V437.121H198.706V440.828H204.055V442H197.385ZM205.754 432.263V431.091H213.936V432.263H210.505V442H209.184V432.263H205.754ZM215.974 442V431.091H222.558V432.263H217.295V435.949H222.217V437.121H217.295V440.828H222.643V442H215.974ZM224.939 442V431.091H228.625C229.478 431.091 230.177 431.237 230.724 431.528C231.271 431.815 231.676 432.211 231.938 432.716C232.201 433.22 232.333 433.793 232.333 434.436C232.333 435.079 232.201 435.649 231.938 436.146C231.676 436.643 231.273 437.034 230.729 437.318C230.186 437.598 229.492 437.739 228.647 437.739H225.664V436.545H228.604C229.186 436.545 229.655 436.46 230.01 436.29C230.369 436.119 230.628 435.878 230.788 435.565C230.951 435.249 231.033 434.873 231.033 434.436C231.033 433.999 230.951 433.618 230.788 433.291C230.625 432.964 230.364 432.712 230.005 432.534C229.646 432.353 229.172 432.263 228.583 432.263H226.26V442H224.939ZM230.074 437.099L232.759 442H231.225L228.583 437.099H230.074Z" fill="black"/>
<line x1="158.5" y1="350" x2="158.5" y2="372" stroke="black"/>
<line x1="233.5" y1="350" x2="233.5" y2="372" stroke="black"/>
</svg>
